<svg xmlns="http://www.w3.org/2000/svg" version="1.1" xmlns:xlink="http://www.w3.org/1999/xlink" xmlns:svgjs="http://svgjs.dev/svgjs" width="1920" height="650" preserveAspectRatio="none" viewBox="0 0 1920 650"><g mask="url(&quot;#SvgjsMask1013&quot;)" fill="none"><rect width="1920" height="650" x="0" y="0" fill="rgba(5, 33, 88, 1)"></rect><path d="M1000.12 747.97C1127.89 729.76 1063.12 448.32 1406.45 429.5 1749.78 410.68 2000.97 116.62 2219.11 111" stroke="rgba(51,121,194,0.58)" stroke-width="2"></path><path d="M725.1 751.78C850.19 737.38 805.18 468.16 1135.45 459.74 1465.72 451.32 1745.64 272.45 1956.15 271.24" stroke="rgba(51,121,194,0.58)" stroke-width="2"></path><path d="M676.41 739.54C857.05 682.65 788.49 164.93 1167.14 162.41 1545.79 159.89 1897.1 382.05 2148.6 383.41" stroke="rgba(51,121,194,0.58)" stroke-width="2"></path><path d="M515.06 742.18C671.25 726.88 768.31 397.23 1038.16 395.16 1308.01 393.09 1299.71 476.41 1561.26 476.41 1822.81 476.41 1952.02 395.4 2084.36 395.16" stroke="rgba(51,121,194,0.58)" stroke-width="2"></path><path d="M631.29 688.02C880.75 662.15 1036.98 125.81 1460.87 123.92 1884.76 122.03 2076.24 336.69 2290.45 338.42" stroke="rgba(51,121,194,0.58)" stroke-width="2"></path></g><defs><mask id="SvgjsMask1013"><rect width="1920" height="650" fill="#ffffff"></rect></mask></defs></svg>